<svg width="30" height="22" viewBox="0 0 30 22" fill="none" xmlns="http://www.w3.org/2000/svg">
<path d="M2.50008 0.583344H12.9168C13.4693 0.583344 13.9992 0.802837 14.3899 1.19354C14.7806 1.58424 15.0001 2.11414 15.0001 2.66668C15.0001 3.21921 14.7806 3.74911 14.3899 4.13982C13.9992 4.53052 13.4693 4.75001 12.9168 4.75001H2.50008C1.94755 4.75001 1.41764 4.53052 1.02694 4.13982C0.636242 3.74911 0.416748 3.21921 0.416748 2.66668C0.416748 2.11414 0.636242 1.58424 1.02694 1.19354C1.41764 0.802837 1.94755 0.583344 2.50008 0.583344ZM17.0834 17.25H27.5001C28.0526 17.25 28.5825 17.4695 28.9732 17.8602C29.3639 18.2509 29.5834 18.7808 29.5834 19.3333C29.5834 19.8859 29.3639 20.4158 28.9732 20.8065C28.5825 21.1972 28.0526 21.4167 27.5001 21.4167H17.0834C16.5309 21.4167 16.001 21.1972 15.6103 20.8065C15.2196 20.4158 15.0001 19.8859 15.0001 19.3333C15.0001 18.7808 15.2196 18.2509 15.6103 17.8602C16.001 17.4695 16.5309 17.25 17.0834 17.25ZM2.50008 8.91668H27.5001C28.0526 8.91668 28.5825 9.13617 28.9732 9.52687C29.3639 9.91757 29.5834 10.4475 29.5834 11C29.5834 11.5525 29.3639 12.0824 28.9732 12.4731C28.5825 12.8638 28.0526 13.0833 27.5001 13.0833H2.50008C1.94755 13.0833 1.41764 12.8638 1.02694 12.4731C0.636242 12.0824 0.416748 11.5525 0.416748 11C0.416748 10.4475 0.636242 9.91757 1.02694 9.52687C1.41764 9.13617 1.94755 8.91668 2.50008 8.91668Z" fill="#A9832C"/>
</svg>
