<svg width="23" height="19" viewBox="0 0 23 19" fill="none" xmlns="http://www.w3.org/2000/svg">
<path d="M0 9.36955C0 8.99659 0.148158 8.63891 0.411881 8.37518C0.675604 8.11146 1.03329 7.9633 1.40625 7.9633H17.8819L11.7188 2.44893C11.4433 2.19962 11.2776 1.85142 11.258 1.4804C11.2385 1.10937 11.3665 0.745666 11.6142 0.468736C11.8619 0.191807 12.2091 0.0241585 12.58 0.00241278C12.9509 -0.0193329 13.3154 0.106591 13.5938 0.352678L22.5 8.32143C22.6475 8.45333 22.7654 8.61487 22.8462 8.79548C22.927 8.97609 22.9687 9.17171 22.9687 9.36955C22.9687 9.5674 22.927 9.76302 22.8462 9.94363C22.7654 10.1242 22.6475 10.2858 22.5 10.4177L13.5938 18.3864C13.4563 18.5108 13.2956 18.6068 13.121 18.6688C12.9463 18.7309 12.7611 18.7578 12.576 18.748C12.3909 18.7383 12.2096 18.692 12.0424 18.6119C11.8753 18.5318 11.7256 18.4194 11.602 18.2813C11.4784 18.1431 11.3834 17.9819 11.3224 17.8069C11.2613 17.6318 11.2355 17.4465 11.2463 17.2614C11.2572 17.0764 11.3045 16.8953 11.3856 16.7286C11.4666 16.562 11.5799 16.4129 11.7188 16.2902L17.8819 10.7758H1.40625C1.03329 10.7758 0.675604 10.6276 0.411881 10.3639C0.148158 10.1002 0 9.74251 0 9.36955Z" fill="white"/>
</svg>
