<svg width="13" height="11" viewBox="0 0 13 11" fill="none" xmlns="http://www.w3.org/2000/svg">
<path fill-rule="evenodd" clip-rule="evenodd" d="M5.25 0.5H7.75C10.1069 0.5 11.2856 0.5 12.0175 1.2325C12.7494 1.965 12.75 3.14312 12.75 5.5C12.75 7.85687 12.75 9.03562 12.0175 9.7675C11.285 10.4994 10.1069 10.5 7.75 10.5H5.25C2.89312 10.5 1.71437 10.5 0.9825 9.7675C0.250625 9.035 0.25 7.85687 0.25 5.5C0.25 3.14312 0.25 1.96437 0.9825 1.2325C1.715 0.500625 2.89312 0.5 5.25 0.5ZM7.28125 3.625C7.28125 3.50068 7.33064 3.38145 7.41854 3.29354C7.50645 3.20564 7.62568 3.15625 7.75 3.15625H10.875C10.9993 3.15625 11.1185 3.20564 11.2065 3.29354C11.2944 3.38145 11.3437 3.50068 11.3437 3.625C11.3437 3.74932 11.2944 3.86855 11.2065 3.95646C11.1185 4.04436 10.9993 4.09375 10.875 4.09375H7.75C7.62568 4.09375 7.50645 4.04436 7.41854 3.95646C7.33064 3.86855 7.28125 3.74932 7.28125 3.625ZM7.90625 5.5C7.90625 5.37568 7.95564 5.25645 8.04354 5.16854C8.13145 5.08064 8.25068 5.03125 8.375 5.03125H10.875C10.9993 5.03125 11.1185 5.08064 11.2065 5.16854C11.2944 5.25645 11.3437 5.37568 11.3437 5.5C11.3437 5.62432 11.2944 5.74355 11.2065 5.83146C11.1185 5.91936 10.9993 5.96875 10.875 5.96875H8.375C8.25068 5.96875 8.13145 5.91936 8.04354 5.83146C7.95564 5.74355 7.90625 5.62432 7.90625 5.5ZM8.53125 7.375C8.53125 7.25068 8.58064 7.13145 8.66854 7.04354C8.75645 6.95564 8.87568 6.90625 9 6.90625H10.875C10.9993 6.90625 11.1185 6.95564 11.2065 7.04354C11.2944 7.13145 11.3437 7.25068 11.3437 7.375C11.3437 7.49932 11.2944 7.61855 11.2065 7.70645C11.1185 7.79436 10.9993 7.84375 10.875 7.84375H9C8.87568 7.84375 8.75645 7.79436 8.66854 7.70645C8.58064 7.61855 8.53125 7.49932 8.53125 7.375ZM5.875 3.625C5.875 3.95652 5.7433 4.27446 5.50888 4.50888C5.27446 4.7433 4.95652 4.875 4.625 4.875C4.29348 4.875 3.97554 4.7433 3.74112 4.50888C3.5067 4.27446 3.375 3.95652 3.375 3.625C3.375 3.29348 3.5067 2.97554 3.74112 2.74112C3.97554 2.5067 4.29348 2.375 4.625 2.375C4.95652 2.375 5.27446 2.5067 5.50888 2.74112C5.7433 2.97554 5.875 3.29348 5.875 3.625ZM4.625 8.625C7.125 8.625 7.125 8.06562 7.125 7.375C7.125 6.68437 6.00625 6.125 4.625 6.125C3.24375 6.125 2.125 6.68437 2.125 7.375C2.125 8.06562 2.125 8.625 4.625 8.625Z" fill="black"/>
</svg>
