<svg width="27" height="31" viewBox="0 0 27 31" fill="none" xmlns="http://www.w3.org/2000/svg">
<path d="M6.20801 24.25H20.7913V21.3334H6.20801V24.25ZM20.7913 18.4167H6.20801V15.5H20.7913V18.4167ZM6.20801 12.5834H12.0413V9.66669H6.20801V12.5834Z" fill="#A9832C"/>
<path fill-rule="evenodd" clip-rule="evenodd" d="M4.75 0.916687C3.58968 0.916687 2.47688 1.37762 1.65641 2.19809C0.835936 3.01857 0.375 4.13136 0.375 5.29169V25.7084C0.375 26.8687 0.835936 27.9815 1.65641 28.8019C2.47688 29.6224 3.58968 30.0834 4.75 30.0834H22.25C23.4103 30.0834 24.5231 29.6224 25.3436 28.8019C26.1641 27.9815 26.625 26.8687 26.625 25.7084V11.125C26.625 8.4176 25.5495 5.82107 23.635 3.90664C21.7206 1.9922 19.1241 0.916687 16.4167 0.916687H4.75ZM4.75 3.83335H14.9583V11.125H23.7083V25.7084C23.7083 26.0951 23.5547 26.4661 23.2812 26.7396C23.0077 27.013 22.6368 27.1667 22.25 27.1667H4.75C4.36323 27.1667 3.99229 27.013 3.7188 26.7396C3.44531 26.4661 3.29167 26.0951 3.29167 25.7084V5.29169C3.29167 4.90491 3.44531 4.53398 3.7188 4.26049C3.99229 3.987 4.36323 3.83335 4.75 3.83335ZM17.875 3.97919C19.0212 4.21412 20.0942 4.72089 21.0037 5.45685C21.9132 6.1928 22.6327 7.13643 23.1017 8.20835H17.875V3.97919Z" fill="#A9832C"/>
</svg>
