<svg width="17" height="19" viewBox="0 0 17 19" fill="none" xmlns="http://www.w3.org/2000/svg">
<path d="M9.71429 1.1875C9.71429 0.530664 9.17165 0 8.5 0C7.82835 0 7.28571 0.530664 7.28571 1.1875V9.00644L5.71473 7.47012C5.2404 7.00625 4.47009 7.00625 3.99576 7.47012C3.52143 7.93398 3.52143 8.6873 3.99576 9.15117L7.63862 12.7137C8.11295 13.1775 8.88326 13.1775 9.35759 12.7137L13.0004 9.15117C13.4748 8.6873 13.4748 7.93398 13.0004 7.47012C12.5261 7.00625 11.7558 7.00625 11.2815 7.47012L9.71429 9.00644V1.1875ZM2.42857 11.875C1.08906 11.875 0 12.94 0 14.25V15.4375C0 16.7475 1.08906 17.8125 2.42857 17.8125H14.5714C15.9109 17.8125 17 16.7475 17 15.4375V14.25C17 12.94 15.9109 11.875 14.5714 11.875H12.7917L10.644 13.9754C9.46004 15.1332 7.53616 15.1332 6.35223 13.9754L4.20826 11.875H2.42857ZM13.9643 13.9531C14.0839 13.9531 14.2023 13.9762 14.3128 14.0209C14.4233 14.0657 14.5237 14.1313 14.6083 14.214C14.6928 14.2967 14.7599 14.3949 14.8057 14.5029C14.8514 14.611 14.875 14.7268 14.875 14.8438C14.875 14.9607 14.8514 15.0765 14.8057 15.1846C14.7599 15.2926 14.6928 15.3908 14.6083 15.4735C14.5237 15.5562 14.4233 15.6218 14.3128 15.6666C14.2023 15.7113 14.0839 15.7344 13.9643 15.7344C13.8447 15.7344 13.7263 15.7113 13.6158 15.6666C13.5053 15.6218 13.4049 15.5562 13.3203 15.4735C13.2357 15.3908 13.1687 15.2926 13.1229 15.1846C13.0771 15.0765 13.0536 14.9607 13.0536 14.8438C13.0536 14.7268 13.0771 14.611 13.1229 14.5029C13.1687 14.3949 13.2357 14.2967 13.3203 14.214C13.4049 14.1313 13.5053 14.0657 13.6158 14.0209C13.7263 13.9762 13.8447 13.9531 13.9643 13.9531Z" fill="black"/>
</svg>
