<svg width="8" height="13" viewBox="0 0 8 13" fill="none" xmlns="http://www.w3.org/2000/svg">
<path d="M0.961987 0.533765C0.786233 0.709572 0.6875 0.947986 0.6875 1.19658C0.6875 1.44517 0.786233 1.68358 0.961987 1.85939L5.60261 6.50001L0.961987 11.1406C0.791214 11.3175 0.696719 11.5543 0.698855 11.8001C0.700991 12.0459 0.799587 12.281 0.973407 12.4548C1.14723 12.6287 1.38236 12.7273 1.62817 12.7294C1.87398 12.7315 2.1108 12.637 2.28761 12.4663L7.59105 7.16283C7.7668 6.98702 7.86554 6.74861 7.86554 6.50001C7.86554 6.25142 7.7668 6.01301 7.59105 5.8372L2.28761 0.533765C2.1118 0.358011 1.87339 0.259277 1.6248 0.259277C1.37621 0.259277 1.13779 0.358011 0.961987 0.533765Z" fill="black"/>
</svg>
