<svg width="12" height="11" viewBox="0 0 12 11" fill="none" xmlns="http://www.w3.org/2000/svg">
<path d="M8.34706 7.06624L8.06268 7.34936C8.06268 7.34936 7.38581 8.02186 5.53893 6.18561C3.69206 4.34936 4.36893 3.67686 4.36893 3.67686L4.54768 3.49811C4.98956 3.05936 5.03143 2.35436 4.64581 1.83936L3.85831 0.787487C3.38081 0.149987 2.45893 0.0656122 1.91206 0.609362L0.930809 1.58436C0.660184 1.85436 0.478933 2.20311 0.500808 2.59061C0.557058 3.58249 1.00581 5.71561 3.50831 8.20436C6.16268 10.8431 8.65331 10.9481 9.67143 10.8531C9.99393 10.8231 10.2739 10.6594 10.4996 10.4344L11.3871 9.55186C11.9871 8.95624 11.8183 7.93436 11.0508 7.51749L9.85706 6.86811C9.35331 6.59499 8.74081 6.67499 8.34706 7.06624Z" fill="black"/>
</svg>
