<svg width="20" height="20" viewBox="0 0 20 20" fill="none" xmlns="http://www.w3.org/2000/svg">
<path d="M11.667 9.99992H16.2503L11.667 5.41659V9.99992ZM6.66699 4.16659H12.5003L17.5003 9.16659V17.4999C17.5003 17.9419 17.3247 18.3659 17.0122 18.6784C16.6996 18.991 16.2757 19.1666 15.8337 19.1666H6.66699C6.22497 19.1666 5.80104 18.991 5.48848 18.6784C5.17592 18.3659 5.00033 17.9419 5.00033 17.4999V14.9999H9.16699V16.6666L12.5003 14.1666L9.16699 11.6666V13.3333H5.00033V5.83325C5.00033 5.39122 5.17592 4.9673 5.48848 4.65474C5.80104 4.34218 6.22497 4.16659 6.66699 4.16659ZM11.2503 2.49992H3.33366V13.3333H5.00033V14.9999H3.33366C2.89163 14.9999 2.46771 14.8243 2.15515 14.5118C1.84259 14.1992 1.66699 13.7753 1.66699 13.3333V2.49992C1.66699 2.05789 1.84259 1.63397 2.15515 1.32141C2.46771 1.00885 2.89163 0.833252 3.33366 0.833252H9.58366L11.2503 2.49992Z" fill="black"/>
</svg>
