<svg width="24" height="19" viewBox="0 0 24 19" fill="none" xmlns="http://www.w3.org/2000/svg">
<path d="M12 0.59375C13.0343 0.59375 14.0263 1.00036 14.7577 1.72413C15.4891 2.44791 15.9 3.42956 15.9 4.45312C15.9 5.47669 15.4891 6.45834 14.7577 7.18212C14.0263 7.90589 13.0343 8.3125 12 8.3125C10.9657 8.3125 9.97368 7.90589 9.24228 7.18212C8.51089 6.45834 8.1 5.47669 8.1 4.45312C8.1 3.42956 8.51089 2.44791 9.24228 1.72413C9.97368 1.00036 10.9657 0.59375 12 0.59375ZM3.6 3.26562C3.95457 3.26562 4.30567 3.33474 4.63325 3.46901C4.96082 3.60328 5.25847 3.80009 5.50919 4.0482C5.75991 4.29631 5.95879 4.59085 6.09448 4.91502C6.23016 5.23918 6.3 5.58662 6.3 5.9375C6.3 6.28838 6.23016 6.63582 6.09448 6.95998C5.95879 7.28415 5.75991 7.57869 5.50919 7.8268C5.25847 8.07491 4.96082 8.27172 4.63325 8.40599C4.30567 8.54027 3.95457 8.60938 3.6 8.60938C3.24543 8.60938 2.89433 8.54027 2.56675 8.40599C2.23918 8.27172 1.94153 8.07491 1.69081 7.8268C1.44009 7.57869 1.24121 7.28415 1.10553 6.95998C0.969838 6.63582 0.9 6.28838 0.9 5.9375C0.9 5.58662 0.969838 5.23918 1.10553 4.91502C1.24121 4.59085 1.44009 4.29631 1.69081 4.0482C1.94153 3.80009 2.23918 3.60328 2.56675 3.46901C2.89433 3.33474 3.24543 3.26562 3.6 3.26562ZM0 15.4375C0 12.8139 2.14875 10.6875 4.8 10.6875C5.28 10.6875 5.745 10.758 6.18375 10.8879C4.95 12.2535 4.2 14.057 4.2 16.0312V16.625C4.2 17.048 4.29 17.4488 4.45125 17.8125H1.2C0.53625 17.8125 0 17.2818 0 16.625V15.4375ZM19.5487 17.8125C19.71 17.4488 19.8 17.048 19.8 16.625V16.0312C19.8 14.057 19.05 12.2535 17.8163 10.8879C18.255 10.758 18.72 10.6875 19.2 10.6875C21.8513 10.6875 24 12.8139 24 15.4375V16.625C24 17.2818 23.4638 17.8125 22.8 17.8125H19.5487ZM17.7 5.9375C17.7 5.22887 17.9845 4.54927 18.4908 4.0482C18.9972 3.54713 19.6839 3.26563 20.4 3.26562C21.1161 3.26563 21.8028 3.54713 22.3092 4.0482C22.8155 4.54927 23.1 5.22887 23.1 5.9375C23.1 6.64613 22.8155 7.32573 22.3092 7.8268C21.8028 8.32787 21.1161 8.60938 20.4 8.60938C19.6839 8.60938 18.9972 8.32787 18.4908 7.8268C17.9845 7.32573 17.7 6.64613 17.7 5.9375ZM6 16.0312C6 12.7508 8.685 10.0938 12 10.0938C15.315 10.0938 18 12.7508 18 16.0312V16.625C18 17.2818 17.4638 17.8125 16.8 17.8125H7.2C6.53625 17.8125 6 17.2818 6 16.625V16.0312Z" fill="white"/>
</svg>
