<svg width="26" height="24" viewBox="0 0 26 24" fill="none" xmlns="http://www.w3.org/2000/svg">
<g filter="url(#filter0_d_1212_4265)">
<path d="M10.45 15.875L9.025 13.475L6.325 12.875L6.5875 10.1L4.75 8L6.5875 5.9L6.325 3.125L9.025 2.525L10.45 0.125L13 1.2125L15.55 0.125L16.975 2.525L19.675 3.125L19.4125 5.9L21.25 8L19.4125 10.1L19.675 12.875L16.975 13.475L15.55 15.875L13 14.7875L10.45 15.875ZM12.2125 10.6625L16.45 6.425L15.4 5.3375L12.2125 8.525L10.6 6.95L9.55 8L12.2125 10.6625Z" fill="#8A38F5"/>
</g>
<defs>
<filter id="filter0_d_1212_4265" x="0.75" y="0.125" width="24.5" height="23.75" filterUnits="userSpaceOnUse" color-interpolation-filters="sRGB">
<feFlood flood-opacity="0" result="BackgroundImageFix"/>
<feColorMatrix in="SourceAlpha" type="matrix" values="0 0 0 0 0 0 0 0 0 0 0 0 0 0 0 0 0 0 127 0" result="hardAlpha"/>
<feOffset dy="4"/>
<feGaussianBlur stdDeviation="2"/>
<feComposite in2="hardAlpha" operator="out"/>
<feColorMatrix type="matrix" values="0 0 0 0 0 0 0 0 0 0 0 0 0 0 0 0 0 0 0.25 0"/>
<feBlend mode="normal" in2="BackgroundImageFix" result="effect1_dropShadow_1212_4265"/>
<feBlend mode="normal" in="SourceGraphic" in2="effect1_dropShadow_1212_4265" result="shape"/>
</filter>
</defs>
</svg>
