<svg width="15" height="10" viewBox="0 0 15 10" fill="none" xmlns="http://www.w3.org/2000/svg">
<path d="M7.5 3.125C7.00272 3.125 6.52581 3.32254 6.17418 3.67417C5.82255 4.02581 5.625 4.50272 5.625 5C5.625 5.49728 5.82255 5.97419 6.17418 6.32583C6.52581 6.67746 7.00272 6.875 7.5 6.875C7.99728 6.875 8.4742 6.67746 8.82583 6.32583C9.17746 5.97419 9.375 5.49728 9.375 5C9.375 4.50272 9.17746 4.02581 8.82583 3.67417C8.4742 3.32254 7.99728 3.125 7.5 3.125ZM7.5 8.125C6.6712 8.125 5.87634 7.79576 5.29029 7.20971C4.70424 6.62366 4.375 5.8288 4.375 5C4.375 4.1712 4.70424 3.37634 5.29029 2.79029C5.87634 2.20424 6.6712 1.875 7.5 1.875C8.3288 1.875 9.12366 2.20424 9.70971 2.79029C10.2958 3.37634 10.625 4.1712 10.625 5C10.625 5.8288 10.2958 6.62366 9.70971 7.20971C9.12366 7.79576 8.3288 8.125 7.5 8.125ZM7.5 0.3125C4.375 0.3125 1.70625 2.25625 0.625 5C1.70625 7.74375 4.375 9.6875 7.5 9.6875C10.625 9.6875 13.2938 7.74375 14.375 5C13.2938 2.25625 10.625 0.3125 7.5 0.3125Z" fill="white"/>
</svg>
