<svg width="801" height="523" viewBox="0 0 801 523" fill="none" xmlns="http://www.w3.org/2000/svg">
<path d="M332.989 70.4348C335.789 64.7898 340.274 60.1038 343.014 54.4288C345.754 48.7538 346.288 41.1577 341.722 36.8137C337.845 33.1257 331.771 33.0737 327.135 30.4017C315.322 23.5957 315.335 1.97675 301.835 0.108747C295.268 -0.799253 289.326 4.12474 285.357 9.43574C281.388 14.7467 278.225 20.9418 272.72 24.6358C266.488 28.8178 258.432 28.9998 251.512 31.9048C238.245 37.4738 231.289 51.7948 225.473 64.9568C221.726 73.4348 217.894 82.5797 219.632 91.6847C215.853 94.0357 217.537 100.36 221.309 102.722C225.081 105.084 229.817 105.032 234.148 106.055C243.248 108.205 250.704 115.455 254.238 124.112C256.992 130.862 257.555 138.273 258.087 145.543L260.853 183.391C261.263 189.004 261.801 194.969 265.218 199.441C268.635 203.913 276.033 205.787 279.873 201.674C283.543 197.743 281.89 191.519 281.816 186.141C281.742 180.763 286.603 174.067 291.187 176.88L292.804 173.212C303.274 169.463 312.442 162.776 319.211 153.952C325.98 145.128 330.062 134.541 330.969 123.457C332.136 105.601 325.03 86.4578 332.989 70.4348Z" fill="white"/>
<path d="M343.686 183.644C344.698 182.691 345.416 181.468 345.755 180.12C346.094 178.773 346.041 177.356 345.602 176.037C345.163 174.719 344.355 173.553 343.275 172.679C342.195 171.804 340.887 171.257 339.506 171.101L339.523 171.707C337.553 172.857 335.305 173.448 333.023 173.415C330.749 173.379 328.487 173.737 326.335 174.474C325.266 174.863 324.339 175.566 323.677 176.492C323.015 177.418 322.649 178.522 322.626 179.66C322.751 180.532 323.085 181.361 323.599 182.077C324.113 182.793 324.792 183.374 325.578 183.771C327.157 184.549 328.852 185.063 330.597 185.295C335.097 186.142 340.359 186.782 343.686 183.644Z" fill="white"/>
<path d="M431.368 70.7338C433.253 69.4534 434.853 67.7979 436.068 65.8708C436.657 64.8959 436.937 63.7659 436.871 62.6291C436.806 61.4923 436.398 60.4018 435.702 59.5008C434.284 58.2707 432.46 57.6117 430.583 57.6518C425.487 57.2713 420.366 57.8753 415.498 59.4308L430.492 72.7148L431.368 70.7338Z" fill="white"/>
<path d="M406.373 82.2507C408.393 84.4807 407.749 87.9397 407.173 90.8937C406.597 93.8477 406.528 97.5387 409.073 99.1507C411.273 100.551 414.366 99.4077 415.973 97.3567C417.412 95.1707 418.29 92.6632 418.527 90.0567C419.319 86.2663 419.676 82.398 419.593 78.5267C419.497 74.627 418.121 70.8671 415.677 67.8267C413.943 65.8488 411.632 64.4635 409.07 63.865C406.509 63.2665 403.824 63.485 401.392 64.4897L403.714 64.3747C402.026 66.5422 400.746 68.9984 399.936 71.6237C399.549 72.9427 399.521 74.3414 399.857 75.6745C400.193 77.0076 400.879 78.2266 401.845 79.2047C403.227 80.3957 405.146 80.8967 406.373 82.2507Z" fill="white"/>
<path d="M520.311 44.8537L520.723 43.5817C518.996 44.5801 517.664 46.1418 516.951 48.0052C516.238 49.8686 516.188 51.9203 516.807 53.8167C518.136 52.7693 519.16 51.3865 519.776 49.8111C520.392 48.2356 520.577 46.5243 520.311 44.8537Z" fill="white"/>
<path d="M497.865 63.0518C500.064 61.8066 501.941 60.0635 503.344 57.9622C504.748 55.8609 505.64 53.4599 505.948 50.9518C506.186 49.3926 506.006 47.7982 505.425 46.3318C505.127 45.6035 504.653 44.9603 504.047 44.4592C503.44 43.9582 502.719 43.6148 501.947 43.4598L501.007 44.9398C499.658 43.7788 497.393 44.9728 496.826 46.6598C496.46 48.4109 496.613 50.2307 497.264 51.8968C497.915 53.573 497.885 55.4369 497.182 57.0918C496.424 58.065 495.572 58.9607 494.637 59.7658C494.181 60.1813 493.882 60.7426 493.794 61.3537C493.705 61.9647 493.831 62.5876 494.151 63.1158C495.032 64.1278 496.69 63.7038 497.865 63.0518Z" fill="white"/>
<path d="M488.296 54.7807C489.103 53.3326 489.484 51.6861 489.396 50.0307L487.339 49.3857C486.024 49.9184 484.857 50.7618 483.939 51.8438C483.66 52.1231 483.447 52.4607 483.314 52.8324C483.181 53.204 483.131 53.6005 483.169 53.9934C483.208 54.3863 483.332 54.7659 483.534 55.105C483.736 55.4441 484.011 55.7343 484.338 55.9549C484.666 56.1755 485.038 56.3209 485.428 56.3808C485.818 56.4407 486.217 56.4136 486.595 56.3014C486.973 56.1892 487.322 55.9946 487.617 55.7318C487.911 55.4689 488.144 55.1441 488.298 54.7807H488.296Z" fill="white"/>
<path d="M588.814 44.3757C589 44.5317 589.185 44.6917 589.371 44.8487C589.535 44.8147 589.691 44.7487 589.858 44.7317L588.814 44.3757Z" fill="white"/>
<path d="M585.519 62.4247L591.183 57.8427C592.186 57.1329 593.041 56.2341 593.7 55.1967C594.15 54.2148 594.345 53.1348 594.265 52.0576C594.185 50.9803 593.834 49.9407 593.244 49.0357C592.199 47.4317 590.89 46.0164 589.372 44.8497C587.704 45.244 586.239 46.2364 585.254 47.6388C584.269 49.0412 583.833 50.7562 584.028 52.4587C584.369 54.6247 585.728 56.9397 584.619 58.8307C584.187 59.5667 583.443 60.0677 582.945 60.7607C582.447 61.4537 582.285 62.5607 582.97 63.0677C583.73 63.6337 584.782 63.0207 585.519 62.4247Z" fill="white"/>
<path d="M589.648 71.7748C590.35 71.8127 591.052 71.6991 591.707 71.4417C592.361 71.1842 592.952 70.789 593.44 70.2828C595.964 68.2149 598.172 65.7893 599.994 63.0828L587.254 67.1178L588.578 68.6668C587.397 69.4348 588.269 71.5098 589.648 71.7748Z" fill="white"/>
<path d="M601.556 80.5197C601.815 81.1822 602.284 81.7416 602.892 82.1124C603.499 82.4831 604.211 82.6448 604.918 82.5728C605.623 82.4789 606.299 82.2316 606.898 81.8482C607.497 81.4648 608.005 80.9547 608.385 80.3538C609.031 79.4015 609.411 78.2939 609.485 77.1456C609.56 75.9973 609.326 74.8499 608.808 73.8223C608.29 72.7947 607.507 71.9241 606.54 71.3005C605.573 70.677 604.457 70.3232 603.307 70.2758L604.48 72.0677C604.779 75.1267 600.621 77.5917 601.556 80.5197Z" fill="white"/>
<path d="M684.066 114.022C685.215 114.879 686.611 115.341 688.044 115.337C689.478 115.334 690.872 114.866 692.016 114.003C692.759 113.369 693.362 112.588 693.789 111.71C694.216 110.832 694.456 109.875 694.496 108.9C694.536 107.924 694.374 106.951 694.02 106.041C693.666 105.131 693.129 104.304 692.44 103.612L690.27 104.823C689.067 104.049 687.61 103.773 686.207 104.052C684.804 104.33 683.564 105.142 682.747 106.317C682.015 107.548 681.745 109 681.987 110.412C682.229 111.824 682.966 113.104 684.066 114.022Z" fill="white"/>
<path d="M709.296 116.878C710.353 116.571 711.313 115.998 712.085 115.214C712.857 114.43 713.415 113.46 713.705 112.399L709.486 111.845C708.313 110.959 706.947 110.362 705.499 110.104C704.773 109.995 704.032 110.139 703.4 110.512C702.768 110.884 702.282 111.463 702.026 112.151C701.936 112.736 701.998 113.334 702.205 113.888C702.412 114.443 702.758 114.935 703.209 115.318C704.005 116.077 704.983 116.62 706.049 116.893C707.115 117.166 708.233 117.161 709.296 116.879V116.878Z" fill="white"/>
<path d="M691.877 125.315C691.951 126.001 692.219 126.652 692.65 127.192C693.08 127.731 693.656 128.137 694.308 128.362C695.021 128.7 695.819 128.816 696.599 128.696C697.379 128.575 698.105 128.223 698.682 127.685C698.937 127.397 699.119 127.053 699.214 126.681C699.309 126.309 699.314 125.919 699.228 125.545C699.143 125.171 698.969 124.822 698.722 124.528C698.474 124.235 698.161 124.004 697.806 123.856L694.643 123.281C693.419 122.643 691.857 123.935 691.877 125.315Z" fill="white"/>
<path d="M508.326 147.554L505.878 145.318C506.529 146.226 507.363 146.987 508.326 147.554Z" fill="white"/>
<path d="M489.625 134.39C491.132 141.39 498.672 147.09 505.516 144.99L505.877 145.32C503.698 142.337 503.329 137.92 503.838 134.087C504.783 127.511 507.369 121.279 511.357 115.966C515.345 110.653 520.607 106.43 526.657 103.687C528.314 103.169 529.796 102.204 530.939 100.897C531.914 99.4707 531.55 97.0237 529.87 96.6207C528.957 96.5152 528.036 96.727 527.261 97.2207L514.541 103.481C508.116 106.643 501.564 109.896 496.518 114.976C491.472 120.056 488.118 127.39 489.625 134.39Z" fill="white"/>
<path d="M284.3 375.095C272.449 366.611 259.468 359.827 245.736 354.942C237.296 351.942 228.227 349.652 219.436 351.356C214.614 352.353 210.095 354.475 206.246 357.547C202.397 360.619 199.327 364.556 197.286 369.038C195.32 373.552 194.395 378.451 194.58 383.371C194.766 388.291 196.057 393.107 198.358 397.46C202.413 405.06 209.436 411.112 211.784 419.399C213.367 424.986 212.617 430.935 211.855 436.692L207.185 471.987C205.768 482.698 204.385 493.845 207.778 504.103C211.171 514.361 220.846 523.403 231.596 522.315L233.726 522.155C226.615 517.32 224.626 507.309 226.739 498.975C228.852 490.641 234.23 483.575 239.476 476.761L286.185 416.108C292.485 407.928 299.147 397.818 295.785 388.056C293.874 382.506 289.072 378.512 284.3 375.095Z" fill="white"/>
<path d="M178.193 323.987C176.616 323.453 174.951 324.64 174.024 326.023C173.275 327.508 172.394 328.923 171.393 330.252C168.968 332.752 164.548 332.252 161.932 329.952C159.316 327.652 158.183 324.095 157.675 320.652C157.066 316.517 157.329 311.904 160.058 308.739C162.867 305.48 167.485 304.606 171.734 303.929C176.123 303.229 181.04 302.647 184.634 305.259C186.899 306.904 188.219 309.559 190.317 311.412C192.415 313.265 196.147 313.967 197.726 311.656C198.139 310.837 198.348 309.929 198.335 309.012C198.322 308.094 198.087 307.194 197.65 306.387C196.763 304.779 196.229 303 196.084 301.17C196.19 298.629 198.23 296.61 200.318 295.157C202.406 293.704 204.763 292.451 206.133 290.309C207.818 287.673 207.639 284.278 208.684 281.33C211.213 274.194 220.241 271.02 222.87 263.92C223.504 262.426 223.575 260.754 223.07 259.212C221.97 256.384 218.994 256.939 218.812 253.483C218.637 250.177 221.395 246.934 224.198 245.554C228.062 243.654 232.566 243.805 236.872 243.689C241.178 243.573 245.816 243.001 248.972 240.074C249.995 239.02 250.784 237.761 251.286 236.381C251.789 235.001 251.995 233.531 251.89 232.066C251.786 230.601 251.373 229.174 250.679 227.88C249.985 226.585 249.025 225.452 247.863 224.554C245.508 222.928 242.532 222.362 240.241 220.648C237.387 218.513 236.041 214.956 233.814 212.17C231.965 210.048 229.85 208.175 227.52 206.597L221.799 202.352C218.351 199.794 214.764 197.171 210.569 196.259C206.374 195.347 201.378 196.637 199.277 200.381C198.448 202.049 197.996 203.879 197.951 205.742C197.76 210.127 197.943 214.52 198.498 218.874L199.537 229.388C199.847 232.53 199.514 236.672 196.464 237.488C189.698 239.297 191.981 229.288 190.481 226.228C188.181 221.537 177.631 219.284 173.119 217.328C170.301 216.107 167.328 214.759 165.627 212.203C163.509 209.021 163.944 204.691 165.605 201.249C167.266 197.807 169.971 195.005 172.429 192.078C174.934 189.095 177.216 185.931 179.495 182.771L187.424 171.776C190.814 167.076 194.377 161.339 192.452 155.876C192.035 155.145 191.411 154.553 190.659 154.174C189.907 153.796 189.06 153.648 188.224 153.748C187.388 153.849 186.601 154.194 185.96 154.741C185.32 155.287 184.855 156.01 184.623 156.82C183.779 159.771 186.03 163.538 183.877 165.725C183.139 166.319 182.216 166.634 181.269 166.616C180.321 166.597 179.411 166.247 178.696 165.625C177.3 164.337 176.237 162.731 175.596 160.943C172.987 155.143 170.445 149.31 167.766 143.543C166.919 141.72 166.036 138.599 163.466 138.906C161.239 139.173 160.036 142.419 160.113 144.306C160.226 147.048 161.741 149.498 162.899 151.986C164.057 154.474 164.867 157.461 163.599 159.893C161.989 162.972 157.91 163.664 154.437 163.562C147.891 163.363 141.476 161.671 135.684 158.614C135.533 161.831 135.382 165.049 135.23 168.267L121.4 162.478L118.714 161.354C114.825 159.726 110.932 158.097 106.928 156.775C104.655 156.025 102.351 155.375 100.048 154.726L95.8482 153.542C93.0853 152.563 90.1548 152.144 87.2282 152.312C84.1532 152.698 81.4112 154.35 78.5672 155.584C72.2232 158.338 64.0172 155.567 57.2182 155.518C54.5213 151.581 50.8804 148.383 46.6283 146.216C42.3763 144.05 37.6489 142.984 32.8786 143.116C28.1082 143.248 23.4472 144.574 19.3217 146.973C15.1962 149.372 11.7379 152.766 9.26323 156.847C8.06798 158.914 7.00355 161.054 6.07622 163.255L3.30822 169.455C1.95522 172.488 0.572215 175.683 0.838215 178.993C1.10422 182.303 3.63821 185.685 6.96221 185.655C-0.868792 189.2 -2.49778 201.606 4.15122 207.055C5.99222 208.563 8.25121 209.55 9.90722 211.255C11.1581 212.547 11.9946 214.182 12.3095 215.953C12.6245 217.723 12.4035 219.547 11.6749 221.191C10.9463 222.835 9.7434 224.224 8.22029 225.179C6.69719 226.135 4.92335 226.614 3.12622 226.555C7.76544 228.348 12.8755 228.514 17.6218 227.028C22.368 225.541 26.4699 222.489 29.2572 218.37C32.1002 213.919 33.3352 208.358 37.2032 204.761C42.3252 199.998 50.7852 200.367 56.6922 204.113C62.5992 207.859 66.3362 214.236 68.9072 220.741C72.2752 229.266 74.4312 239.007 81.6072 244.709C85.0772 247.466 89.4712 249.017 92.5392 252.216C96.9072 256.772 97.6622 263.649 97.5642 269.96C97.4662 276.271 96.7862 282.819 99.0852 288.697C101.384 294.575 107.974 299.41 113.885 297.197C112.192 302.221 112.244 307.669 114.034 312.66C115.823 317.65 119.245 321.891 123.745 324.694L120.515 304.659C125.881 306.17 129.36 311.375 131.368 316.575C133.376 321.775 134.438 327.4 137.35 332.154C141.935 339.64 150.238 342.866 158.684 342.838C167.808 342.807 171.272 338.457 177.284 332.05C178.492 330.957 179.409 329.58 179.952 328.044C180.197 327.269 180.154 326.432 179.831 325.686C179.508 324.941 178.926 324.337 178.193 323.987Z" fill="white"/>
<path d="M204.029 323.654L188.729 321.254L196.75 326.076C198.979 327.559 201.402 328.727 203.95 329.546C205.229 329.948 206.576 330.083 207.909 329.942C209.242 329.802 210.532 329.389 211.699 328.73L211.046 327.482C210.02 324.877 206.791 324.088 204.029 323.654Z" fill="white"/>
<path d="M200.564 352.002L200.599 351.913C200.291 351.401 199.836 350.994 199.295 350.742C198.753 350.491 198.148 350.408 197.558 350.503C196.383 350.713 195.182 350.732 194.001 350.561C193.251 350.268 192.582 349.799 192.05 349.194C191.518 348.59 191.139 347.866 190.943 347.085C190.436 345.56 190.286 343.928 189.709 342.428C189.292 341.242 188.556 340.193 187.581 339.398C186.607 338.604 185.432 338.093 184.186 337.923C182.936 337.822 181.696 338.218 180.736 339.025C179.775 339.831 179.17 340.983 179.052 342.232C179.15 343.518 179.558 344.76 180.242 345.854L181.892 349.028C182.357 349.976 182.892 350.889 183.492 351.758C184.466 353.1 185.739 354.196 187.211 354.959C188.682 355.723 190.312 356.132 191.969 356.156C193.627 356.18 195.267 355.816 196.76 355.095C198.253 354.374 199.557 353.314 200.568 352.001L200.564 352.002Z" fill="white"/>
<path d="M170.779 80.6068C174.662 82.8958 179.525 84.4737 181.37 88.5867L182.435 88.9307L178.952 93.2587C177.517 95.0417 176.008 97.0288 176.042 99.3168C176.088 102.469 179.12 104.846 182.183 105.589C185.452 106.261 188.854 105.695 191.729 104.001C194.604 102.306 196.746 99.6041 197.741 96.4187C198.105 95.0897 198.256 93.7118 198.575 92.3728C199.506 89.1947 200.912 86.1753 202.744 83.4167L233.68 31.3718C234.964 29.2108 236.288 26.6268 235.322 24.3058C234.807 23.3243 234.009 22.5196 233.032 21.9954C232.055 21.4713 230.944 21.2516 229.841 21.3648C227.64 21.6326 225.517 22.3472 223.602 23.4648C222.752 21.9702 221.551 20.7045 220.103 19.7763C218.656 18.8481 217.004 18.2851 215.291 18.1358C211.866 17.8713 208.42 18.1713 205.091 19.0238C197.572 20.1585 190.321 22.6496 183.691 26.3758C180.064 28.2088 176.073 30.4758 175.021 34.3988C173.727 39.2268 177.898 44.1478 182.7 45.5358C187.502 46.9238 192.628 45.7578 197.489 44.5898C198.039 46.946 197.81 49.4169 196.837 51.632C195.863 53.8472 194.199 55.6873 192.092 56.8766C189.985 58.066 187.549 58.5404 185.15 58.2289C182.75 57.9174 180.517 56.8367 178.783 55.1488C175.299 51.7568 173.593 45.8668 168.809 44.9918C164.041 44.1188 160.251 49.2048 159.198 53.9368C158.169 59.0333 158.727 64.323 160.798 69.0923C162.869 73.8617 166.353 77.8812 170.779 80.6087V80.6068Z" fill="white"/>
<path d="M230.587 164.085C228.29 157.612 225.271 151.419 221.587 145.623C218.797 141.038 215.353 136.885 211.364 133.295C207.717 130.146 203.525 127.69 198.995 126.05C194.595 124.46 189.702 123.674 185.257 125.124C180.812 126.574 177.03 130.707 177.12 135.382C177.22 140.551 181.742 144.594 186.456 146.718C191.17 148.842 196.413 149.766 200.856 152.403C203.88 154.237 206.407 156.785 208.215 159.824C210.023 162.864 211.057 166.3 211.226 169.833L212.346 171.685C209.809 172.524 207.443 173.811 205.359 175.485C204.328 176.336 203.539 177.445 203.073 178.699C202.607 179.953 202.48 181.307 202.705 182.626C203.482 185.756 206.678 187.552 209.568 188.984L225.589 196.919C222.87 188.811 231.772 181.266 232.265 172.729C232.284 169.762 231.713 166.821 230.584 164.077L230.587 164.085Z" fill="white"/>
<path d="M96.3092 142.194C99.5492 144.71 104.529 143.533 107.497 140.702C110.465 137.871 111.91 133.842 113.258 129.968C112.766 133.802 112.813 137.686 113.397 141.508C113.702 143.419 114.399 145.245 115.446 146.872C116.493 148.5 117.866 149.892 119.479 150.961C120.944 151.763 122.522 152.336 124.16 152.661C131.775 154.394 139.733 153.826 147.024 151.028L147.089 148.535C143.426 148.953 140.655 144.935 140.413 141.257C140.171 137.579 141.506 133.971 141.624 130.286C141.742 126.601 139.966 122.296 136.338 121.641C136.973 122.916 137.204 124.354 137.002 125.764C136.799 127.174 136.172 128.489 135.203 129.533C134.235 130.578 132.972 131.303 131.581 131.612C130.19 131.921 128.739 131.799 127.419 131.263C123.219 129.556 121.695 124.44 118.45 121.275C116.445 119.491 113.958 118.34 111.3 117.967C108.643 117.593 105.934 118.013 103.515 119.175C101.127 120.393 99.0314 122.116 97.3739 124.224C95.7164 126.332 94.5363 128.774 93.9152 131.383C92.9282 135.172 93.2202 139.795 96.3092 142.194Z" fill="white"/>
<path d="M196.287 115.94L196.437 115.696C195.537 113.084 192.729 111.553 189.993 111.165C187.235 110.983 184.465 111.074 181.725 111.438C178.96 111.795 176.156 111.178 173.797 109.692C171.914 108.284 170.841 106.069 169.335 104.262C167.829 102.455 165.392 100.97 163.205 101.834C160.837 102.769 160.205 106.088 161.354 108.36C162.707 110.54 164.748 112.207 167.154 113.097C176.271 117.282 186.529 118.283 196.283 115.94H196.287Z" fill="white"/>
<path d="M165.167 123.768C164.412 124.323 163.9 125.149 163.738 126.073C163.577 126.997 163.779 127.947 164.302 128.726C164.825 129.505 165.628 130.051 166.545 130.251C167.461 130.452 168.419 130.29 169.219 129.801L170.019 130.59C171.082 128.69 171.519 126.138 170.161 124.435C169.557 123.728 168.713 123.27 167.792 123.147C166.871 123.024 165.936 123.245 165.168 123.769L165.167 123.768Z" fill="white"/>
<path d="M155.819 130.593C155.831 129.913 155.637 129.245 155.262 128.678C154.887 128.111 154.349 127.67 153.719 127.415C153.29 127.341 152.851 127.355 152.428 127.456C152.005 127.557 151.606 127.742 151.256 128.001C150.907 128.26 150.613 128.587 150.393 128.962C150.173 129.337 150.031 129.753 149.976 130.185C149.91 131.064 150.026 131.948 150.316 132.78C150.606 133.613 151.064 134.377 151.661 135.026C152.009 135.548 152.463 135.99 152.995 136.324C153.526 136.658 154.122 136.875 154.743 136.962C155.995 137.003 157.272 135.694 156.764 134.549L154.852 134.512C155.441 133.286 155.771 131.952 155.82 130.593H155.819Z" fill="white"/>
<path d="M118.434 111.015L120.54 112.722C121.756 113.773 123.07 114.706 124.463 115.508C126.9 116.858 129.766 117.209 132.457 116.487C133.786 116.108 134.998 115.401 135.981 114.431C136.964 113.46 137.688 112.258 138.084 110.935C138.923 107.772 137.554 104.487 136.214 101.502C135.908 100.647 135.404 99.8778 134.742 99.2568C134.403 98.956 133.971 98.7818 133.519 98.7636C133.066 98.7453 132.621 98.8842 132.259 99.1568C131.997 99.4832 131.823 99.8714 131.753 100.284C131.683 100.697 131.719 101.121 131.859 101.516C132.147 102.302 132.279 103.138 132.247 103.975C132.113 104.801 131.247 105.581 130.484 105.239L130.362 108.049C126.717 106.204 124.789 101.295 120.732 100.811C119.822 100.702 118.899 100.846 118.064 101.226C117.23 101.606 116.516 102.208 116 102.966C115.484 103.724 115.186 104.609 115.139 105.525C115.092 106.441 115.297 107.352 115.732 108.159C116.436 109.278 117.353 110.248 118.432 111.013L118.434 111.015Z" fill="white"/>
<path d="M109.751 98.8817C110.595 98.3036 111.262 97.5038 111.679 96.5705C112.097 95.6373 112.249 94.6068 112.118 93.5927C112.017 93.1016 111.809 92.6388 111.509 92.2371C111.209 91.8355 110.825 91.5048 110.382 91.2687C109.94 91.0326 109.451 90.8969 108.95 90.8711C108.45 90.8454 107.949 90.9303 107.485 91.1198C106.444 91.8987 105.712 93.0215 105.42 94.2887L102.538 102.419L104.153 101.244C106.151 100.814 108.051 100.013 109.753 98.8817H109.751Z" fill="white"/>
<path d="M128.461 82.2507C128.75 81.887 128.955 81.4644 129.062 81.0128C129.17 80.5612 129.177 80.0916 129.084 79.6369C128.99 79.1821 128.798 78.7534 128.521 78.3809C128.244 78.0084 127.889 77.7012 127.48 77.4808L125.461 77.2917C125.002 77.4079 124.577 77.63 124.219 77.9403C123.861 78.2507 123.581 78.6405 123.401 79.0787C123.221 79.5168 123.147 79.991 123.183 80.4632C123.22 80.9354 123.366 81.3924 123.612 81.7976C123.857 82.2029 124.193 82.545 124.595 82.7965C124.996 83.0481 125.451 83.2021 125.922 83.2461C126.394 83.2902 126.869 83.2231 127.31 83.0502C127.751 82.8774 128.145 82.6035 128.461 82.2507Z" fill="white"/>
<path d="M147.039 85.3667C148.923 86.2667 151.308 87.1267 152.947 85.8327C153.433 85.3933 153.794 84.8337 153.994 84.2103C154.194 83.5869 154.227 82.9217 154.088 82.2817C153.794 81.0051 153.226 79.8077 152.422 78.7727C149.915 75.1739 146.731 72.0988 143.046 69.7197L142.135 70.9037C140.863 74.2037 139.635 78.0647 141.409 81.1287C142.606 83.1927 144.886 84.3397 147.039 85.3667Z" fill="white"/>
<path d="M161.074 88.3078L164.597 89.9018C164.252 89.2993 163.726 88.8209 163.094 88.5347C162.461 88.2485 161.754 88.1691 161.074 88.3078Z" fill="white"/>
<path d="M151.58 99.3927L149.915 99.9417C148.499 102.268 149.115 105.242 149.772 107.885C150.188 109.556 151.086 111.611 152.806 111.535C154.48 111.461 155.22 109.435 155.541 107.788C156.042 106.002 156.097 104.12 155.699 102.308C155.472 101.411 154.933 100.624 154.178 100.09C153.423 99.5555 152.501 99.3083 151.58 99.3927Z" fill="white"/>
<path d="M125.032 91.5638L126.264 92.0638C126.553 92.0232 126.821 91.8884 127.025 91.6805C127.23 91.4725 127.36 91.2028 127.396 90.9133C127.431 90.6238 127.371 90.3306 127.223 90.079C127.075 89.8275 126.849 89.6317 126.578 89.522C126.308 89.4123 126.009 89.3948 125.728 89.4722C125.447 89.5496 125.199 89.7176 125.023 89.9502C124.846 90.1828 124.752 90.4669 124.754 90.7586C124.755 91.0503 124.853 91.3333 125.032 91.5638Z" fill="white"/>
<path d="M187.134 185.756C186.538 185.769 185.953 185.925 185.429 186.21C184.904 186.496 184.456 186.902 184.121 187.396C183.785 187.89 183.573 188.456 183.501 189.049C183.43 189.641 183.501 190.242 183.708 190.802C184.918 193.402 189.084 193.418 190.935 191.222C191.41 190.598 191.749 189.883 191.933 189.121C192.117 188.359 192.141 187.568 192.004 186.796C191.867 186.025 191.571 185.29 191.135 184.639C190.7 183.987 190.134 183.433 189.473 183.012L187.134 185.756Z" fill="white"/>
<path d="M247.137 247.462C246.653 247.591 246.2 247.816 245.804 248.123C245.408 248.431 245.078 248.814 244.833 249.251C244.588 249.688 244.433 250.17 244.377 250.668C244.322 251.166 244.367 251.67 244.509 252.151L247.968 252.391L251.482 250.627C251.412 250.131 251.242 249.654 250.984 249.224C250.726 248.795 250.384 248.421 249.979 248.126C249.574 247.831 249.114 247.62 248.626 247.506C248.138 247.392 247.632 247.376 247.138 247.461L247.137 247.462Z" fill="white"/>
<path d="M233.08 251.74C232.09 252.442 231.295 253.385 230.77 254.48C230.245 255.575 230.008 256.785 230.08 257.997C230.193 259.205 230.687 260.347 231.491 261.256C232.296 262.165 233.368 262.794 234.554 263.053C235.751 263.24 236.974 262.966 237.977 262.286C238.979 261.605 239.686 260.57 239.954 259.389C240.539 255.812 236.694 253.189 235.312 249.84L233.08 251.74Z" fill="white"/>
<path d="M367.412 228.112C367.777 230.798 365.357 233.15 365.267 235.859C365.16 239.073 368.659 241.574 371.859 241.259C373.448 240.984 374.951 240.344 376.25 239.389C377.549 238.435 378.609 237.192 379.347 235.759L379.416 235.459L374.74 230.173C372.826 228.009 370.796 225.546 370.871 222.658C370.908 221.234 371.471 219.858 371.437 218.431C371.362 217.406 371.134 216.399 370.759 215.443C370.337 214.183 369.759 212.764 368.504 212.343C366.929 211.811 365.339 213.207 364.587 214.69C363.911 216.058 363.582 217.571 363.63 219.097C363.678 220.622 364.101 222.112 364.862 223.435C365.772 224.976 367.17 226.335 367.412 228.112Z" fill="white"/>
<path d="M352.717 237.562C353.058 237.746 353.435 237.854 353.821 237.879C354.208 237.904 354.596 237.845 354.957 237.706C356.346 237.469 357.681 236.984 358.898 236.274C359.501 235.909 359.996 235.391 360.333 234.773C360.67 234.155 360.837 233.458 360.817 232.754C360.607 231.867 360.139 231.063 359.471 230.443C358.803 229.823 357.967 229.416 357.067 229.272C356.443 229.052 355.774 228.989 355.12 229.089C354.465 229.189 353.845 229.449 353.315 229.845C352.154 230.935 352.292 232.784 352.515 234.36L352.27 234.771C352.06 235.744 351.917 236.954 352.717 237.562Z" fill="white"/>
<path d="M598.07 352.336L597.058 349.821C596.596 350.959 596.768 352.124 598.07 352.336Z" fill="white"/>
<path d="M800.463 175.982C796.136 171.288 793.487 168.582 790.755 162.763C789.268 159.554 787.01 156.763 784.182 154.639C781.354 152.515 778.044 151.125 774.547 150.592C765.571 149.113 756.398 151.455 747.314 150.986C732.762 150.234 719.64 142.429 705.705 138.172C697.903 135.987 689.957 134.35 681.926 133.272L668.043 131.072C652.874 128.672 637.609 126.272 622.255 126.586C617.828 126.678 611.655 125.347 612.015 120.933C612.456 115.451 622.315 116.17 624.215 111.008C625.389 107.815 622.58 104.462 619.499 103.018C616.418 101.574 612.862 101.14 610.066 99.2007C607.27 97.2617 605.738 92.7677 608.308 90.5377L586.94 101.492C581.018 104.528 574.402 108.477 573.356 115.049C569.788 115.991 566.665 118.161 564.536 121.176C560.53 121.197 557.381 125.043 556.72 128.995C556.059 132.947 557.26 136.946 558.448 140.772C556.995 137.988 555.448 135.099 552.89 133.282C550.332 131.465 546.429 131.12 544.246 133.376C542.005 135.691 542.529 139.576 544.114 142.382C545.699 145.188 548.135 147.452 549.63 150.306C554.302 159.22 545.836 171.77 535.822 170.777C536.494 161.572 537.165 152.367 537.837 143.163C538.261 140.331 538.022 137.44 537.137 134.717C536.044 132.082 533.247 129.917 530.463 130.54C525.458 131.659 525.885 138.991 527.963 143.678C530.041 148.365 532.121 154.883 527.87 157.754C525.125 159.608 521.404 158.463 518.441 156.983C515.478 155.503 512.308 153.683 509.069 154.371C505.83 155.059 503.793 160.014 506.655 161.681L492.417 159.207C492.182 160.604 491.657 161.936 490.875 163.117C490.092 164.299 489.071 165.303 487.877 166.065C486.682 166.827 485.342 167.329 483.941 167.541C482.54 167.752 481.11 167.667 479.744 167.292L478.344 161.499L476.261 160.919C478.441 161.526 475.03 170.719 471.972 177.743C467.861 177.261 461.854 177.168 461.172 175.99C457.89 170.349 458.279 156.913 452.572 153.739C449.712 152.147 446.779 150.697 443.772 149.389C442.193 148.637 440.525 148.09 438.808 147.759C435.308 147.207 431.775 148.293 428.395 149.367C424.402 150.635 420.315 151.951 417.009 154.524C414.186 156.973 411.766 159.851 409.837 163.053L390.252 192.039C388.307 194.619 386.777 197.487 385.716 200.539C385.217 202.056 385.05 203.664 385.229 205.252C385.407 206.839 385.926 208.37 386.75 209.739C387.619 211.081 388.913 212.092 390.426 212.608C391.939 213.125 393.581 213.118 395.089 212.588C396.981 211.769 398.876 209.913 400.751 210.77C402.171 211.419 402.526 213.286 402.377 214.84C402.016 216.362 401.988 217.944 402.294 219.478C403.148 221.898 406.432 222.739 408.774 221.692C411.052 220.448 412.759 218.369 413.534 215.892C415.791 210.104 415.561 203.699 416.123 197.511C416.685 191.323 418.376 184.706 423.254 180.858C424.714 179.706 426.86 178.876 428.363 179.971C428.926 180.482 429.316 181.156 429.477 181.9C429.638 182.643 429.564 183.418 429.263 184.117C428.635 185.499 427.815 186.786 426.829 187.941C425.162 190.286 423.996 192.948 423.403 195.763C422.809 198.579 422.802 201.486 423.38 204.304L424.38 204.921C428.18 203.934 433.274 205.701 438.324 207.395C434.659 208.485 431.431 210.705 429.102 213.738C423.265 221.928 419.04 229.678 407.493 229.581C404.754 229.558 402.038 229.016 399.298 229.01C396.533 228.839 393.809 229.746 391.698 231.541C389.621 233.575 388.979 236.671 387.198 238.971C384.862 241.996 380.957 243.226 377.391 244.599C374.785 245.599 372.038 246.957 370.84 249.48C370.088 251.549 369.915 253.784 370.34 255.945C370.74 259.766 371.452 264.112 374.694 266.174C375.906 266.806 377.232 267.191 378.595 267.306C379.957 267.421 381.329 267.265 382.63 266.845C386.002 266.025 389.299 264.48 392.762 264.711C398.199 265.073 402.676 270.292 402.731 275.74C402.759 278.498 401.954 281.661 403.782 283.727C405.5 285.668 408.907 285.322 410.682 283.438C411.509 282.436 412.078 281.247 412.34 279.974C412.601 278.702 412.547 277.385 412.182 276.138C411.426 273.653 410.264 271.312 408.742 269.208C410.551 268.739 412.467 268.911 414.164 269.695C415.86 270.479 417.233 271.826 418.048 273.508C419.256 276.191 418.866 279.286 419.248 282.208C419.63 285.13 421.409 288.366 424.348 288.535C425.309 288.562 426.248 288.251 427.004 287.658C427.76 287.065 428.284 286.226 428.486 285.287C428.516 283.806 428.436 282.326 428.244 280.858C428.344 279.412 428.994 278.06 430.059 277.078C431.125 276.097 432.525 275.56 433.974 275.578C433.08 277.229 432.789 279.141 433.15 280.984C433.512 282.827 434.504 284.487 435.956 285.678C438.191 287.408 441.146 287.794 443.931 288.278C446.716 288.762 449.686 289.526 451.483 291.707C454.477 295.34 450.814 296.977 450.243 300.054C449.543 303.832 452.698 309.41 453.91 313.024L470.619 336.399C471.862 338.294 473.329 340.032 474.987 341.577C480.487 346.299 489.549 345.833 494.822 340.861C497.379 338.274 499.039 334.936 499.559 331.336C500.079 327.736 499.431 324.065 497.71 320.861C494.452 314.93 487.995 311.261 484.81 305.287C490.117 309.679 496.632 312.359 503.493 312.97C515.633 315.437 527.168 320.274 537.436 327.205C537.918 337.933 542.034 348.178 549.108 356.258C550.38 347.102 554.648 338.625 561.246 332.152C565.537 327.967 571.4 324.593 577.287 325.719C583.174 326.845 587.64 334.351 584.079 339.173L593.03 339.839L597.044 349.819C597.282 349.12 597.738 348.515 598.345 348.094C598.951 347.673 599.677 347.457 600.415 347.479C603.208 347.901 605.167 350.499 607.824 351.459C612.832 353.268 618.186 348.259 618.834 342.972C619.482 337.685 616.967 332.584 614.525 327.853C619.921 328.852 625.492 328.257 630.555 326.139C635.618 324.022 639.954 320.474 643.031 315.93C646.109 311.386 647.795 306.043 647.883 300.556C647.97 295.069 646.456 289.675 643.525 285.035C649.332 278.936 656.164 273.906 663.712 270.173C670.697 266.722 678.337 264.354 684.442 259.513C690.547 254.672 694.828 246.267 691.891 239.051C689.817 233.951 684.614 230.493 683.057 225.214C680.803 217.572 687.65 209.668 695.385 207.759C703.12 205.85 711.197 208.197 718.817 210.525C717.646 202.685 726.734 195.335 734.156 198.119L743.482 194.343C739.882 202.288 732.07 207.343 726.329 213.91C720.588 220.477 717.168 231.173 723.166 237.51L748.956 214.135L775.932 189.684L774.644 185.9C783.164 182.668 792.326 179.995 800.463 175.982Z" fill="white"/>
<path d="M353.945 280.847C353.598 281.347 353.414 281.941 353.417 282.549C353.42 283.158 353.61 283.75 353.962 284.247C354.424 284.639 355.008 284.858 355.614 284.866C356.219 284.875 356.809 284.671 357.281 284.292C358.203 283.503 358.924 282.506 359.381 281.382C359.828 282.246 360.529 282.951 361.391 283.402C362.252 283.853 363.232 284.029 364.196 283.904C366.122 283.614 367.947 282.853 369.509 281.689C370.748 280.962 371.842 280.013 372.735 278.889C373.177 278.323 373.481 277.661 373.621 276.957C373.762 276.253 373.737 275.525 373.546 274.833C373.081 273.771 372.36 272.841 371.446 272.127L364.622 265.827L363.851 265.596C363.45 265.169 362.967 264.827 362.43 264.592C361.894 264.356 361.315 264.232 360.729 264.225C360.144 264.219 359.563 264.331 359.021 264.555C358.48 264.779 357.989 265.11 357.579 265.529C356.166 267.11 356.16 269.473 356.379 271.582C356.598 273.691 356.931 275.938 355.992 277.839C355.457 278.927 354.545 279.79 353.945 280.847Z" fill="white"/>
<path d="M485.925 352.623C477.085 350.655 468.994 346.197 462.606 339.777C456.219 333.357 451.803 325.243 449.88 316.393C449.042 312.217 448.662 307.654 445.88 304.425C443.19 301.299 438.796 300.171 434.672 300.171C430.548 300.171 426.483 301.12 422.372 301.377C415.172 301.826 407.551 299.925 402.406 294.877C399.969 292.486 398.125 289.449 395.279 287.562C391.454 285.027 386.379 285.029 382.025 286.462C377.171 288.062 373.285 292.44 367.977 291.837C362.457 291.21 356.059 289.259 353.895 296.528C353.272 298.621 353.484 300.916 352.695 302.952C351.479 306.09 348.25 307.859 345.695 310.052C340.551 314.467 337.817 321.175 336.895 327.891C335.973 334.607 336.687 341.428 337.395 348.169C337.78 351.805 338.286 355.718 340.784 358.389C344.266 362.112 350.108 361.968 355.184 361.548L372.884 360.086C376.065 359.823 379.69 359.712 381.955 361.961C383.312 363.309 383.886 365.261 385.08 366.754C386.152 368.026 387.623 368.897 389.253 369.225C390.883 369.554 392.577 369.321 394.057 368.564C392.859 370.701 392.207 373.101 392.158 375.551C392.109 378.001 392.665 380.425 393.777 382.609C394.889 384.793 396.522 386.669 398.532 388.07C400.542 389.472 402.867 390.356 405.3 390.645L405.755 390.932C401.977 397.402 398.055 404.667 399.624 411.994C400.967 418.276 406.17 423.313 407.024 429.68C407.805 435.522 404.756 441.497 406.105 447.235C407.471 453.045 413.339 457.096 419.292 457.529C425.245 457.962 431.092 455.321 435.705 451.529C440.318 447.737 443.882 442.858 447.395 438.029C449.564 435.05 451.789 431.949 452.534 428.339C453.327 424.498 452.408 420.239 454.276 416.793C456.43 412.816 461.543 411.325 464.123 407.611C467.465 402.801 465.496 396.252 466.235 390.442C468.076 376.071 486.34 367.11 485.925 352.623Z" fill="white"/>
<path d="M483.286 401.708C482.786 403.953 480.686 405.431 478.686 406.561C476.686 407.691 474.48 408.831 473.459 410.892C472.414 413.003 472.891 415.519 473.438 417.81C474.576 422.576 475.915 427.288 477.457 431.946C480.446 426.298 483.056 420.457 485.269 414.462C486.206 412.23 486.785 409.864 486.983 407.452C487.075 406.244 486.912 405.031 486.506 403.89C486.101 402.749 485.46 401.706 484.626 400.828L483.286 401.708Z" fill="white"/>
<path d="M606.219 376.702L598.688 368.009C596.971 366.027 595.014 363.909 592.413 363.58L591.342 364.264L597.871 379.811C598.642 382.177 599.998 384.309 601.814 386.011C603.762 387.542 606.921 387.836 608.546 385.965C609.07 385.263 609.4 384.437 609.504 383.568C609.607 382.699 609.481 381.817 609.136 381.013C608.428 379.413 607.44 377.953 606.218 376.701L606.219 376.702Z" fill="white"/>
<path d="M630.542 382.251C631.491 381.921 632.361 381.397 633.096 380.713C633.83 380.028 634.414 379.197 634.809 378.274C635.587 376.424 636.101 374.474 636.335 372.482L637.622 364.698L637.061 364.554C636.516 364.292 635.895 364.237 635.312 364.399C634.729 364.56 634.225 364.928 633.892 365.433C633.26 366.463 632.782 367.581 632.472 368.75C632.313 369.334 632.024 369.874 631.627 370.331C631.23 370.787 630.735 371.148 630.178 371.387C628.163 371.995 626.255 369.86 624.152 369.943C623.303 370.051 622.515 370.444 621.917 371.057C621.319 371.671 620.947 372.469 620.861 373.321C620.739 375.041 621.227 376.75 622.238 378.147C624.031 380.93 627.359 383.167 630.542 382.251Z" fill="white"/>
<path d="M644.421 387.171L650.206 371.935C647.863 373.635 646.066 375.982 645.039 378.689C644.011 381.396 643.796 384.344 644.421 387.171Z" fill="white"/>
<path d="M673.943 374.893L672.773 374.943C672.25 375.977 671.973 377.118 671.961 378.276C671.95 379.435 672.206 380.581 672.709 381.625C673.736 383.706 675.229 385.521 677.073 386.93C679.931 389.289 683.193 391.11 686.7 392.306C691.844 393.806 697.163 394.626 702.52 394.743L711.707 395.343C713.166 395.443 715.053 395.253 715.458 393.849C715.793 392.689 714.805 391.599 713.882 390.82C705.779 384.002 695.957 379.544 685.49 377.934C681.518 377.326 677.309 377.078 673.943 374.893Z" fill="white"/>
<path d="M706.631 415.323L700.024 408.916C697.882 406.839 694.673 404.638 692.218 406.334C690.807 407.309 690.372 409.21 689.176 410.439C688.448 411.092 687.569 411.553 686.617 411.78C685.666 412.007 684.673 411.993 683.728 411.739C681.847 411.21 680.069 410.367 678.469 409.246L673.004 405.855L667.347 402.344L663.091 406.48C663.276 404.445 660.562 403.122 658.683 403.927C657.79 404.428 657.022 405.123 656.435 405.962C655.848 406.801 655.458 407.762 655.293 408.773C654.98 410.793 654.434 412.77 653.666 414.665C651.505 418.802 646.259 420.027 641.643 420.72C637.027 421.413 631.799 422.389 629.328 426.349C627.27 429.649 627.887 433.882 628.574 437.708L631.174 452.183C631.297 453.937 632.001 455.599 633.174 456.909C635.459 458.926 638.999 457.7 641.788 456.47C647.618 453.666 653.875 451.853 660.301 451.105C666.784 450.38 673.308 452.051 678.643 455.805C681.951 458.324 684.473 461.81 687.978 464.047C690.393 465.5 693.107 466.382 695.915 466.627C698.722 466.872 701.548 466.473 704.178 465.46C709.448 463.361 713.81 459.472 716.496 454.476C718.881 450.07 720.078 445.119 719.969 440.111C719.86 435.102 718.449 430.208 715.874 425.911C713.245 422.011 710.14 418.455 706.631 415.323Z" fill="white"/>
<path d="M700.137 474.297C699.609 474.938 699.3 475.733 699.255 476.563C699.211 477.393 699.433 478.215 699.89 478.91C700.85 480.285 702.313 481.227 703.962 481.531C705.595 481.823 707.26 481.9 708.913 481.758L708.963 480.523C708.523 478.355 707.523 476.341 706.063 474.679C704.468 473.163 701.649 472.697 700.137 474.297Z" fill="white"/>
<path d="M756.851 475.622L756.062 475.333L750.424 483.833C749.413 485.357 748.357 487.187 748.974 488.909C749.704 490.947 752.403 491.544 754.5 491.009C756.1 490.574 757.542 489.691 758.657 488.466C759.773 487.24 760.517 485.722 760.8 484.089C761.033 482.447 760.784 480.772 760.083 479.269C759.382 477.766 758.259 476.499 756.851 475.622Z" fill="white"/>
<path d="M771.182 466.629L765.994 462.504C765.928 464.417 765.858 466.33 765.786 468.244H765.591C766.788 469.293 767.917 470.416 768.973 471.607C770.188 472.64 772.225 473.107 773.263 471.907C773.574 471.474 773.75 470.959 773.77 470.426C773.79 469.894 773.653 469.367 773.375 468.912C772.804 468.012 772.059 467.235 771.182 466.629Z" fill="white"/>
<path d="M677.448 287.187C675.271 287.119 672.861 286.987 671.174 288.364C670.619 288.86 670.132 289.428 669.726 290.052L669.131 290.885C668.241 292.05 667.465 293.298 666.813 294.612C666.473 295.228 666.269 295.909 666.214 296.611C666.16 297.312 666.257 298.017 666.498 298.678C666.638 298.994 666.845 299.275 667.105 299.502C667.365 299.729 667.672 299.897 668.004 299.992C668.336 300.087 668.684 300.109 669.025 300.054C669.366 300 669.691 299.872 669.977 299.678C670.907 298.816 670.69 297.253 671.394 296.197C671.704 295.799 672.102 295.479 672.557 295.262C673.011 295.044 673.51 294.935 674.014 294.944C675.019 294.969 676.02 295.082 677.005 295.282C679.734 295.656 682.514 295.241 685.014 294.086C687.515 292.931 689.633 291.084 691.119 288.764C692.604 286.444 693.394 283.748 693.396 280.993C693.398 278.238 692.611 275.541 691.129 273.219L690.954 272.684C689.447 272.626 687.967 273.099 686.773 274.02C685.578 274.941 684.744 276.251 684.416 277.724C683.929 280.261 684.961 283.207 683.424 285.282C682.127 287.028 679.625 287.255 677.448 287.187Z" fill="white"/>
<path d="M696.935 260.295L696.603 260.266C694.656 260.621 692.787 261.318 691.082 262.323C690.523 262.582 690.076 263.036 689.824 263.599C689.75 263.897 689.751 264.21 689.828 264.508C689.905 264.806 690.054 265.081 690.263 265.307C690.686 265.753 691.181 266.125 691.727 266.407C692.541 266.95 693.44 267.352 694.387 267.597C694.862 267.714 695.36 267.712 695.834 267.59C696.308 267.468 696.744 267.229 697.103 266.897C697.44 266.434 697.672 265.903 697.782 265.341C697.892 264.779 697.878 264.2 697.74 263.645C697.585 262.504 697.315 261.381 696.934 260.295H696.935Z" fill="white"/>
<path d="M663.381 287.833C663.901 286.999 664.271 286.08 664.473 285.119L665.082 282.879L662.912 281.561C661.876 282.1 660.919 282.782 660.071 283.586C659.65 283.991 659.317 284.479 659.093 285.019C658.869 285.56 658.76 286.14 658.771 286.725C658.801 287.309 659.028 287.866 659.415 288.305C659.801 288.744 660.325 289.039 660.901 289.143C661.393 289.158 661.88 289.045 662.315 288.815C662.75 288.586 663.118 288.248 663.383 287.834L663.381 287.833Z" fill="white"/>
<path d="M426.974 86.0347C426.116 86.5697 426.358 87.8628 426.706 88.8118L427.906 92.0818L428.465 89.9657C428.956 89.1449 429.172 88.189 429.083 87.2368C428.89 86.3058 427.781 85.5347 426.974 86.0347Z" fill="white"/>
<path d="M694.437 441.063C722.051 441.063 744.437 418.677 744.437 391.063C744.437 363.449 722.051 341.063 694.437 341.063C666.823 341.063 644.437 363.449 644.437 391.063C644.437 418.677 666.823 441.063 694.437 441.063Z" fill="#A9832C"/>
<mask id="mask0_7_48" style="mask-type:luminance" maskUnits="userSpaceOnUse" x="644" y="341" width="101" height="101">
<path d="M694.437 441.063C722.051 441.063 744.437 418.677 744.437 391.063C744.437 363.449 722.051 341.063 694.437 341.063C666.823 341.063 644.437 363.449 644.437 391.063C644.437 418.677 666.823 441.063 694.437 441.063Z" fill="white"/>
</mask>
<g mask="url(#mask0_7_48)">
<path d="M707.553 388.931C708.222 386.75 708.273 384.427 707.701 382.219C707.129 380.011 705.956 378.005 704.313 376.424C702.67 374.842 700.62 373.747 698.392 373.26C696.164 372.772 693.845 372.912 691.691 373.664C689.538 374.415 687.635 375.749 686.193 377.516C684.752 379.284 683.829 381.416 683.526 383.677C683.224 385.937 683.554 388.238 684.479 390.322C685.405 392.406 686.89 394.193 688.77 395.485L681.239 414.362L718.239 411.227C718.239 411.227 699.489 401.165 699.253 397.145C701.208 396.568 702.989 395.517 704.438 394.083C705.886 392.65 706.957 390.879 707.553 388.931Z" fill="#FFCCCE"/>
<path d="M718.289 410.037L721.444 408.579C722.58 408.796 723.628 409.34 724.46 410.144C725.291 410.948 725.869 411.977 726.124 413.106C727.199 417.173 732.108 438.962 732.108 438.962C732.942 439.849 733.501 440.959 733.719 442.156C733.937 443.354 733.804 444.59 733.336 445.714C733.336 445.714 733.91 450.049 732.108 450.701C730.306 451.353 718.235 460.672 718.235 460.672L718.289 410.037Z" fill="#090814"/>
<path d="M708.785 404.36L700.629 399.393C698.748 408.753 689.044 409.267 687.163 399.908L681.163 404.361L668.503 408.581L670.344 457.665L696.044 457.591V457.665H719.603L721.444 408.581L708.785 404.36Z" fill="#090814"/>
<path d="M671.661 410.037L668.506 408.579C667.37 408.796 666.322 409.34 665.491 410.144C664.66 410.948 664.081 411.977 663.826 413.106C662.751 417.173 664.747 440.689 664.747 440.689C663.914 441.576 663.354 442.686 663.136 443.883C662.919 445.081 663.051 446.317 663.519 447.441C663.519 447.441 662.945 451.776 664.747 452.428C666.549 453.08 671.662 453.37 671.662 453.37L671.661 410.037Z" fill="#090814"/>
<path d="M684.118 380.076L683.181 389.632C683.181 389.632 673.352 370.56 685.572 367.033C685.572 367.033 684.382 365.421 686.109 364.885C687.836 364.349 704.215 361.777 705.52 369.795C705.52 369.795 714.076 375.095 711.487 380.771L708.436 387.441L705.674 387.594C705.674 387.594 705.596 374.894 701.374 375.318C697.152 375.742 684.118 380.076 684.118 380.076Z" fill="#090814"/>
</g>
<path d="M424.937 314.063C452.828 314.063 475.437 291.677 475.437 264.063C475.437 236.449 452.828 214.063 424.937 214.063C397.047 214.063 374.437 236.449 374.437 264.063C374.437 291.677 397.047 314.063 424.937 314.063Z" fill="#A9832C"/>
<mask id="mask1_7_48" style="mask-type:luminance" maskUnits="userSpaceOnUse" x="374" y="214" width="102" height="101">
<path d="M424.937 314.063C452.828 314.063 475.437 291.677 475.437 264.063C475.437 236.449 452.828 214.063 424.937 214.063C397.047 214.063 374.437 236.449 374.437 264.063C374.437 291.677 397.047 314.063 424.937 314.063Z" fill="white"/>
</mask>
<g mask="url(#mask1_7_48)">
<path d="M418.474 269.542L417.974 277.694L433.197 278.466L428.483 267.725L418.474 269.542Z" fill="#FFCCCE"/>
<path d="M417.583 276.475C421.663 278.619 428.19 278.033 435.583 276.475L436.739 336.845C436.739 336.845 412.639 344.653 404.682 334.545L409.837 282.892L417.582 276.48L417.583 276.475Z" fill="#D6D6E3"/>
<path d="M430.942 273.336L441.916 279.836C443.937 281.032 445.502 282.867 446.364 285.051C447.226 287.236 447.335 289.645 446.675 291.899L438.194 320.866C438.194 320.866 452.005 344.594 447.518 346.687C437.433 351.387 422.384 350.246 422.384 350.246L425.747 293.436L430.947 273.336H430.942Z" fill="black"/>
<path d="M418.06 276.26L405.651 281.081L402.72 316.881L394.512 345.719C408.412 350.793 407.112 348.429 407.112 348.429L409.412 298.67L418.053 276.27L418.06 276.26Z" fill="black"/>
<path d="M399.936 345.105L399.978 344.905L412.662 286.238C412.811 285.592 412.83 284.924 412.72 284.27C412.61 283.617 412.373 282.992 412.021 282.431C411.669 281.869 411.211 281.383 410.671 280.999C410.131 280.615 409.521 280.341 408.876 280.192C408.23 280.044 407.562 280.024 406.909 280.134C406.255 280.244 405.63 280.482 405.069 280.833C404.507 281.185 404.021 281.644 403.637 282.183C403.253 282.723 402.979 283.333 402.83 283.979L388.896 341.257L399.933 345.109L399.936 345.105Z" fill="black"/>
<path d="M425.078 271.707C431.899 271.707 437.428 266.177 437.428 259.357C437.428 252.536 431.899 247.007 425.078 247.007C418.258 247.007 412.728 252.536 412.728 259.357C412.728 266.177 418.258 271.707 425.078 271.707Z" fill="#FFCCCE"/>
<path d="M419.203 243.356C416.483 244.312 414.926 244.856 413.503 246.233C411.095 248.553 410.697 251.654 410.328 254.533C409.776 257.374 410.004 260.311 410.987 263.033C411.437 264.169 413.623 269.233 417.805 269.871C418.626 269.997 420.555 270.03 419.999 269.619C414.855 265.819 412.66 263.529 412.84 257.676C412.952 254.039 418.509 250.113 421.808 249.407C422.601 249.245 423.42 249.256 424.208 249.44C424.996 249.623 425.735 249.975 426.374 250.471C429.147 252.748 429.029 262.162 431.953 264.13C433.153 264.94 432.353 259.242 433.202 260.166C434.874 261.989 433.802 264.779 433.502 265.844C432.077 270.887 430.584 267.158 429.193 271.464C427.693 276.113 440.871 279.244 441.319 280.282C442.099 282.088 430.953 290.657 434.013 292.143C437.896 294.03 440.957 291.573 442.762 293.679C443.771 294.856 443.225 296.104 445.048 299.767C445.643 300.967 445.942 301.561 446.204 301.54C447.45 301.44 449.469 291.462 446.204 282.171C444.834 278.271 443.492 274.452 439.897 271.464C437.997 269.884 436.397 269.316 435.946 267.472C435.297 264.836 437.991 263.712 438.53 259.555C438.899 256.712 439.158 252.645 438.153 250.039C437.205 247.577 436.382 245.439 434.228 243.504C433.71 243.039 429.534 239.876 425.106 239.786C423.068 239.745 421.569 242.524 419.206 243.355L419.203 243.356Z" fill="#090814"/>
<path d="M438.318 280.203C440.206 279.936 442.124 280.397 443.684 281.491C445.245 282.585 446.332 284.232 446.724 286.097C449.564 299.597 454.661 328.367 446.656 328.847C439.764 329.14 432.865 328.506 426.141 326.964L428.653 312.52L436.817 311.683L432.017 289.221C431.801 288.212 431.796 287.169 432 286.158C432.205 285.146 432.615 284.188 433.206 283.342C433.797 282.496 434.556 281.78 435.435 281.24C436.314 280.7 437.296 280.347 438.317 280.203H438.318Z" fill="black"/>
</g>
<path d="M147.977 200.399C157.882 200.399 167.565 203.336 175.8 208.839C184.036 214.342 190.455 222.163 194.245 231.314C198.036 240.465 199.027 250.534 197.095 260.249C195.163 269.963 190.393 278.887 183.389 285.891C176.385 292.894 167.462 297.664 157.747 299.596C148.033 301.529 137.963 300.537 128.812 296.747C119.662 292.956 111.84 286.537 106.337 278.302C100.834 270.066 97.8973 260.384 97.8973 250.479C97.8973 237.197 103.174 224.459 112.565 215.067C121.957 205.675 134.695 200.399 147.977 200.399Z" fill="#A9832C"/>
<mask id="mask2_7_48" style="mask-type:luminance" maskUnits="userSpaceOnUse" x="97" y="200" width="101" height="101">
<path d="M147.878 300.361C175.482 300.361 197.859 277.983 197.859 250.38C197.859 222.776 175.482 200.399 147.878 200.399C120.275 200.399 97.8973 222.776 97.8973 250.38C97.8973 277.983 120.275 300.361 147.878 300.361Z" fill="white"/>
</mask>
<g mask="url(#mask2_7_48)">
<path d="M150.928 240.838C155.708 240.838 159.582 236.963 159.582 232.184C159.582 227.404 155.708 223.53 150.928 223.53C146.149 223.53 142.274 227.404 142.274 232.184C142.274 236.963 146.149 240.838 150.928 240.838Z" fill="#FFB9B9"/>
<path d="M143.454 234.151C143.454 234.151 143.06 246.346 141.094 247.919C139.128 249.492 148.175 256.18 148.175 256.18L154.075 246.739V238.085L143.454 234.151Z" fill="#FFB9B9"/>
<path d="M147.388 250.674L142.612 243.462L139.912 247.133L135.978 258.148L139.125 301.026L157.614 301.42L159.974 252.247L154.074 245.166L147.388 250.674Z" fill="#F2F2F2"/>
<path d="M167.45 253.427L170.597 253.034C170.597 253.034 171.383 253.427 171.777 256.181C172.171 258.935 176.889 283.325 176.889 283.325L170.595 313.225L163.514 303.784L167.843 287.263L163.515 270.735L167.45 253.427Z" fill="#090814"/>
<path d="M127.325 253.034H124.965L119.065 284.898L124.572 309.682L130.08 300.634L128.506 290.799L129.291 282.145L132.045 277.031L127.325 253.034Z" fill="#090814"/>
<path d="M145.815 232.187L147.389 231.793C147.389 231.793 148.569 225.104 151.323 225.893C154.077 226.682 161.158 227.467 161.158 224.319C161.158 221.171 154.469 218.419 150.537 218.811C146.605 219.203 139.915 220.387 140.308 226.287C140.688 230.294 141.677 234.219 143.24 237.928L143.447 234.428L145.815 232.187Z" fill="#090814"/>
<path d="M170.205 253.034L157.617 247.92L154.667 245.756L145.816 284.898L139.916 267.198L141.686 244.579L125.361 253.037L130.871 279.789L131.658 290.017L129.298 298.278C129.298 298.278 121.037 304.178 123.791 310.473C126.545 316.768 129.691 317.162 129.691 317.162C129.691 317.162 143.066 304.574 143.854 301.427C144.642 298.28 145.821 292.773 145.821 292.773C145.821 292.773 152.51 317.95 160.376 317.556C168.242 317.162 168.244 308.902 168.244 308.902L166.277 300.248L163.126 291.189L164.7 276.241L170.205 253.034Z" fill="#090814"/>
</g>
</svg>
